<svg width="50" height="50" viewBox="0 0 50 50" fill="none" xmlns="http://www.w3.org/2000/svg">
<path d="M50 25C50 11.1936 38.8064 0 25.0014 0C11.1935 0 0 11.1936 0 25C0 37.4781 9.14306 47.8195 21.094 49.6961V32.2254H14.7476V25H21.094V19.4916C21.094 13.2257 24.8276 9.76486 30.5367 9.76486C33.2726 9.76486 36.1342 10.2538 36.1342 10.2538V16.4052H32.98C29.8753 16.4052 28.9073 18.3327 28.9073 20.3097V25H35.8402L34.7324 32.2254H28.9073V49.6961C40.8583 47.8195 50 37.4781 50 25Z" fill="white"/>
<path d="M34.7324 32.2254L35.8402 25H28.9073V20.3097C28.9073 18.3327 29.8753 16.4052 32.98 16.4052H36.1342V10.2538C36.1342 10.2538 33.2726 9.76486 30.5367 9.76486C24.8276 9.76486 21.094 13.2257 21.094 19.4916V25H14.7476V32.2254H21.094V49.6961C22.3673 49.8954 23.6717 49.9999 25.0015 49.9999C26.3298 49.9999 27.6341 49.8954 28.9073 49.6961V32.2254H34.7324Z" fill="#4154AF"/>
</svg>
