<svg width="50" height="50" viewBox="0 0 50 50" fill="none" xmlns="http://www.w3.org/2000/svg">
<path d="M50 25C50 38.8064 38.8064 50 25.0014 50C11.1935 50 0 38.8064 0 25C0 11.1921 11.1935 0 25.0014 0C38.8064 0 50 11.1921 50 25Z" fill="white"/>
<path d="M32.761 15.5416C31.8113 15.5416 31.0426 16.3118 31.0426 17.26C31.0426 18.2096 31.8113 18.9784 32.761 18.9784C33.7106 18.9784 34.4794 18.2096 34.4794 17.26C34.4794 16.3118 33.7106 15.5416 32.761 15.5416Z" fill="#4154AF"/>
<path d="M25.1214 29.5886C22.5707 29.5886 20.4962 27.5141 20.4962 24.9648C20.4962 22.4155 22.5707 20.341 25.1214 20.341C27.6708 20.341 29.7438 22.4155 29.7438 24.9648C29.7438 27.5141 27.6708 29.5886 25.1214 29.5886ZM25.1214 17.7465C21.1406 17.7465 17.9017 20.9839 17.9017 24.9648C17.9017 28.9456 21.1406 32.1831 25.1214 32.1831C29.1009 32.1831 32.3398 28.9456 32.3398 24.9648C32.3398 20.9839 29.1009 17.7465 25.1214 17.7465Z" fill="#4154AF"/>
<path d="M19.1481 13.0663C15.8145 13.0663 13.1027 15.7782 13.1027 19.1132V30.8169C13.1027 34.1505 15.8145 36.8637 19.1481 36.8637H30.8518C34.1869 36.8637 36.9001 34.1505 36.9001 30.8169V19.1132C36.9001 15.7782 34.1869 13.0663 30.8518 13.0663H19.1481ZM30.8518 39.6208H19.1481C14.294 39.6208 10.3442 35.671 10.3442 30.8169V19.1132C10.3442 14.259 14.294 10.3093 19.1481 10.3093H30.8518C35.706 10.3093 39.6571 14.259 39.6571 19.1132V30.8169C39.6571 35.671 35.706 39.6208 30.8518 39.6208Z" fill="#4154AF"/>
</svg>
