<svg width="50" height="50" viewBox="0 0 50 50" fill="none" xmlns="http://www.w3.org/2000/svg">
<path d="M50 25.0012C50 38.8079 38.8076 49.9998 24.9991 49.9998C11.1924 49.9998 0 38.8079 0 25.0012C0 11.1945 11.1924 0 24.9991 0C38.8076 0 50 11.1945 50 25.0012Z" fill="white"/>
<path d="M16.9391 12.6152C18.4865 12.6152 19.7398 13.8722 19.7398 15.4177C19.7398 16.9632 18.4865 18.2215 16.9391 18.2215C15.3849 18.2215 14.1316 16.9632 14.1316 15.4177C14.1316 13.8722 15.3849 12.6152 16.9391 12.6152ZM14.5163 20.3454H19.3585V35.898H14.5163V20.3454Z" fill="#4154AF"/>
<path d="M22.3917 20.3454H27.0287V22.4719H27.092C27.74 21.2477 29.3164 19.9586 31.6708 19.9586C36.566 19.9586 37.4671 23.1786 37.4671 27.3676V35.898H32.6369V28.3353C32.6369 26.5315 32.6027 24.2111 30.1235 24.2111C27.6083 24.2111 27.2236 26.1774 27.2236 28.2039V35.898H22.3917V20.3454Z" fill="#4154AF"/>
</svg>
