<svg width="50" height="50" viewBox="0 0 50 50" fill="none" xmlns="http://www.w3.org/2000/svg">
<path d="M50 25C50 38.8064 38.8064 50 25.0014 50C11.1935 50 0 38.8064 0 25C0 11.1921 11.1935 0 25.0014 0C38.8064 0 50 11.1921 50 25Z" fill="white"/>
<path d="M38.8136 16.4334C37.9474 16.8249 36.9892 17.0623 36.0565 17.2191C36.5003 17.1456 37.1518 16.343 37.4118 16.0179C37.8103 15.5219 38.141 14.9581 38.3275 14.349C38.3501 14.301 38.3685 14.2416 38.3219 14.2049C38.2611 14.1809 38.2215 14.1936 38.1749 14.2176C37.132 14.7758 36.0538 15.1814 34.9063 15.4682C34.8102 15.4923 34.7395 15.4683 34.6787 15.4089C34.5855 15.3015 34.4964 15.1997 34.3933 15.1164C33.9128 14.7051 33.3942 14.3843 32.8106 14.1455C32.0433 13.8332 31.2067 13.7018 30.3814 13.7555C29.5787 13.8078 28.7902 14.0339 28.0779 14.4056C27.3629 14.7786 26.727 15.2973 26.2183 15.9247C25.694 16.5719 25.3067 17.3364 25.1075 18.1476C24.9167 18.9304 24.9323 19.7049 25.0496 20.4948C25.068 20.6262 25.0552 20.6446 24.9365 20.6262C20.4455 19.9578 16.7233 18.3525 13.7034 14.9086C13.572 14.7589 13.4999 14.7588 13.3925 14.9199C12.0698 16.9026 12.7128 20.0864 14.3647 21.6508C14.5852 21.8599 14.8114 22.0676 15.0544 22.2584C14.9654 22.2768 13.8659 22.1567 12.8881 21.6508C12.7552 21.5674 12.6902 21.6154 12.6775 21.7638C12.6662 21.9786 12.6846 22.1751 12.7142 22.4082C12.9672 24.4163 14.3592 26.2746 16.2641 26.9995C16.4902 27.0956 16.7403 27.179 16.9847 27.22C16.5495 27.3146 16.103 27.3839 14.858 27.285C14.7039 27.2553 14.6446 27.333 14.704 27.4814C15.6395 30.0321 17.6588 30.791 19.1709 31.222C19.3716 31.2587 19.575 31.2588 19.7785 31.3054C19.7658 31.3238 19.7545 31.3238 19.7418 31.3407C19.2416 32.1066 17.502 32.6761 16.6922 32.9588C15.2183 33.4731 13.6144 33.7049 12.0585 33.5509C11.8098 33.5155 11.7575 33.5169 11.6897 33.5509C11.6205 33.5933 11.6812 33.654 11.7617 33.7176C12.0769 33.9268 12.3977 34.1105 12.7256 34.2899C13.7148 34.8142 14.7449 35.2311 15.8232 35.5293C21.3881 37.0668 27.6583 35.9363 31.8384 31.7844C35.1197 28.5229 36.2685 24.0263 36.2685 19.524C36.2685 19.3487 36.4777 19.2513 36.6021 19.158C37.4556 18.5164 38.1452 17.7491 38.7811 16.8913C38.9239 16.6991 38.9253 16.5281 38.9253 16.4574C38.9253 16.4447 38.9253 16.4334 38.9253 16.4334C38.9253 16.3614 38.9239 16.384 38.8136 16.4334Z" fill="#4154AF"/>
</svg>
