<svg width="50" height="50" viewBox="0 0 50 50" fill="none" xmlns="http://www.w3.org/2000/svg">
<path d="M50 25C50 38.8064 38.8064 50 25.0014 50C11.1935 50 0 38.8064 0 25C0 11.1921 11.1935 0 25.0014 0C38.8064 0 50 11.1921 50 25Z" fill="white"/>
<path d="M29.3581 25.5356L22.4746 28.9414C22.2033 29.0866 21.2876 28.8918 21.2876 28.5849V21.5942C21.2876 21.2835 22.2118 21.0886 22.4817 21.2426L29.0712 24.8274C29.3468 24.9846 29.6364 25.3831 29.3581 25.5356ZM38.3852 21.4275C38.3852 18.1138 35.6974 15.4244 32.3822 15.4244H17.0312C13.7159 15.4244 11.0281 18.1138 11.0281 21.4275V28.5711C11.0281 31.8876 13.7159 34.5741 17.0312 34.5741H32.3822C35.6974 34.5741 38.3852 31.8876 38.3852 28.5711V21.4275Z" fill="#4154AF"/>
</svg>
