<svg width="38" height="38" viewBox="0 0 38 38" fill="none" xmlns="http://www.w3.org/2000/svg">
<rect width="38" height="38" rx="19" fill="#F7F8FF"/>
<path d="M14.1003 23.2444H13.4002C13.0289 23.2444 12.6727 23.0993 12.4101 22.8409C12.1475 22.5825 12 22.232 12 21.8666V14.9775C12 14.6121 12.1475 14.2617 12.4101 14.0033C12.6727 13.7449 13.0289 13.5997 13.4002 13.5997H24.6019C24.9733 13.5997 25.3294 13.7449 25.592 14.0033C25.8546 14.2617 26.0021 14.6121 26.0021 14.9775V21.8666C26.0021 22.232 25.8546 22.5825 25.592 22.8409C25.3294 23.0993 24.9733 23.2444 24.6019 23.2444H23.9018" stroke="#121224" stroke-linecap="round" stroke-linejoin="round"/>
<path d="M19.0005 21.8666L22.5011 26H15.5L19.0005 21.8666Z" stroke="#121224" stroke-linecap="round" stroke-linejoin="round"/>
</svg>